<svg id="Logo_endossement_LAMES_couleur" data-name="Logo endossement LAMES couleur" xmlns="http://www.w3.org/2000/svg" viewBox="0 0 503.452 150.442"><defs><style>.cls-1{fill:#2f2a85;}.cls-2{fill:#fff;}</style></defs><title>LAMES-couleurs</title><g id="Logo_endossement_LAMES_couleur-2" data-name="Logo endossement LAMES couleur"><rect id="Fond_bleu" data-name="Fond bleu" class="cls-1" x="0.849" y="1.09" width="250.877" height="148.421"/><rect id="Fond_blanc" data-name="Fond blanc" class="cls-2" x="251.726" y="1.035" width="250.802" height="148.358"/><path id="Contour_bleu" data-name="Contour bleu" class="cls-1" d="M514.124,15.01V161.452H14.672V15.01H514.124m2-2H12.672V163.452H516.124V13.01Z" transform="translate(-12.672 -13.01)"/><g id="Logo_Gustave_Eiffel" data-name="Logo Gustave Eiffel"><g id="Symbole"><path class="cls-2" d="M94.079,109.725a20.147,20.147,0,0,0-11.6-3.661,20.371,20.371,0,0,0-14.474,5.867,20.08,20.08,0,0,0-4.648,7.2l-.414,1.095h8.9l.234-.369a11.614,11.614,0,0,1,1.614-2,12.461,12.461,0,0,1,19.03,2.021l.236.353h8.984l-.441-1.108a20.82,20.82,0,0,0-7.428-9.393" transform="translate(-12.672 -13.01)"/><path class="cls-2" d="M59.045,73.565a19.651,19.651,0,0,0-7.084-4.725l-1.077-.421V77.47l.363.237a11.674,11.674,0,0,1,1.975,1.641,12.771,12.771,0,0,1,3.454,8.93,12.641,12.641,0,0,1-5.443,10.415l-.349.239v9.135l1.091-.45a20.607,20.607,0,0,0,9.24-7.551,21.4,21.4,0,0,0-2.17-26.5" transform="translate(-12.672 -13.01)"/><path class="cls-2" d="M70.919,66.738a20.155,20.155,0,0,0,11.6,3.66,20.369,20.369,0,0,0,14.474-5.866,20.111,20.111,0,0,0,4.648-7.2l.414-1.094h-8.9l-.234.368A11.621,11.621,0,0,1,91.3,58.611,12.461,12.461,0,0,1,72.27,56.59l-.236-.353H63.05l.441,1.108a20.83,20.83,0,0,0,7.428,9.393" transform="translate(-12.672 -13.01)"/><path class="cls-2" d="M113.766,77.77l.348-.241V68.4l-1.091.448a20.621,20.621,0,0,0-9.241,7.55,21.4,21.4,0,0,0,2.173,26.5,19.62,19.62,0,0,0,7.081,4.724l1.078.421v-9.05l-.361-.238a11.556,11.556,0,0,1-1.976-1.641,12.936,12.936,0,0,1,1.989-19.344" transform="translate(-12.672 -13.01)"/><path class="cls-2" d="M90.555,88.3a8.142,8.142,0,1,1-8.141-8.275A8.209,8.209,0,0,1,90.555,88.3" transform="translate(-12.672 -13.01)"/></g><g id="Université_Gustave_Eiffel" data-name="Université Gustave Eiffel"><g id="Université"><path id="U" class="cls-2" d="M134.391,68.376A3.721,3.721,0,0,0,135.4,65.72V56.353h3.328V65.72a6.771,6.771,0,1,1-13.54,0V56.353h3.328V65.72a3.719,3.719,0,0,0,1.014,2.651,3.293,3.293,0,0,0,4.862.005" transform="translate(-12.672 -13.01)"/><path id="n" class="cls-2" d="M144.7,62.447a5.372,5.372,0,0,1,.37-.435,4.472,4.472,0,0,1,1.045-.7,3.488,3.488,0,0,1,1.7-.442,3.9,3.9,0,0,1,3.041,1.312,5.105,5.105,0,0,1,1.176,3.538v6.437h-2.993V66.062a2.267,2.267,0,0,0-.591-1.636,2,2,0,0,0-1.522-.623,2.064,2.064,0,0,0-1.622.677,2.8,2.8,0,0,0-.6,1.924v5.753h-2.992V61.091H144.7Z" transform="translate(-12.672 -13.01)"/><path id="i" class="cls-2" d="M157.519,59.162a1.79,1.79,0,0,1-1.3.463,1.6,1.6,0,0,1-1.208-.463,1.9,1.9,0,0,1,.005-2.458,1.612,1.612,0,0,1,1.2-.463,1.794,1.794,0,0,1,1.3.463,1.825,1.825,0,0,1,0,2.458m.259,13h-3V61.091h3Z" transform="translate(-12.672 -13.01)"/><polygon id="v" class="cls-2" points="150.63 59.147 146.521 48.08 149.632 48.08 152.181 55.422 154.738 48.08 157.841 48.08 153.742 59.147 150.63 59.147"/><path id="e" class="cls-2" d="M174.258,67.639a2.551,2.551,0,0,0,.943,1.525,3,3,0,0,0,1.942.623,3.66,3.66,0,0,0,1.566-.336,3.034,3.034,0,0,0,1.015-.677l.314-.341,1.549,2.028-.2.2a6.1,6.1,0,0,1-.58.47,6.89,6.89,0,0,1-.944.589,6.1,6.1,0,0,1-1.295.458,6.775,6.775,0,0,1-1.643.2,5.758,5.758,0,0,1-4.108-9.815,5.418,5.418,0,0,1,4-1.692,5.216,5.216,0,0,1,3.881,1.581,5.416,5.416,0,0,1,1.551,3.953l-.109,1.234Zm.938-3.6a3,3,0,0,0-.938,1.466h5a2.538,2.538,0,0,0-.83-1.454,2.353,2.353,0,0,0-1.61-.574,2.429,2.429,0,0,0-1.621.562" transform="translate(-12.672 -13.01)"/><path id="r" class="cls-2" d="M190.776,64.034a3.606,3.606,0,0,0-1-.121,2.4,2.4,0,0,0-1.87.761,3.142,3.142,0,0,0-.689,2.182v5.3h-2.992V61.091h2.992v1.356c.088-.1.21-.238.37-.4a4.32,4.32,0,0,1,1.045-.657,3.728,3.728,0,0,1,1.7-.407h.445Z" transform="translate(-12.672 -13.01)"/><path id="s" class="cls-2" d="M198.187,64.364a2.561,2.561,0,0,0-.212-.242,2.622,2.622,0,0,0-.613-.4,2.018,2.018,0,0,0-.954-.247,1.583,1.583,0,0,0-.975.27.772.772,0,0,0-.358.622.831.831,0,0,0,.509.716,6.3,6.3,0,0,0,1.242.513c.489.151.981.331,1.48.54a2.95,2.95,0,0,1,1.257,1.014,2.865,2.865,0,0,1,.509,1.737,3.168,3.168,0,0,1-1.152,2.491,4.685,4.685,0,0,1-3.173,1,6.334,6.334,0,0,1-1.646-.209,4.933,4.933,0,0,1-1.27-.507,8.129,8.129,0,0,1-.852-.591,3.7,3.7,0,0,1-.524-.49l-.153-.231,1.67-1.687a2.644,2.644,0,0,0,.277.336,3.708,3.708,0,0,0,.8.55,2.5,2.5,0,0,0,1.257.349,1.739,1.739,0,0,0,1.079-.283.86.86,0,0,0-.146-1.487,5.677,5.677,0,0,0-1.257-.529,13.518,13.518,0,0,1-1.48-.545,3.1,3.1,0,0,1-1.242-.993,2.726,2.726,0,0,1-.509-1.7,3.184,3.184,0,0,1,1.218-2.413,4.363,4.363,0,0,1,3-1.081,4.969,4.969,0,0,1,2.077.43,4.077,4.077,0,0,1,1.317.838l.38.429Z" transform="translate(-12.672 -13.01)"/><path id="i-2" data-name="i" class="cls-2" d="M204.893,59.162a1.79,1.79,0,0,1-1.3.463,1.6,1.6,0,0,1-1.208-.463,1.9,1.9,0,0,1,0-2.458,1.614,1.614,0,0,1,1.2-.463,1.794,1.794,0,0,1,1.3.463,1.822,1.822,0,0,1,0,2.458m.259,13h-3V61.091h3Z" transform="translate(-12.672 -13.01)"/><path id="t" class="cls-2" d="M209.235,57.829H211.9v3.494h2.211v2.71H211.9v4.4a1.179,1.179,0,0,0,.373.881,1.306,1.306,0,0,0,.948.365,2.629,2.629,0,0,0,.571-.062,2.028,2.028,0,0,0,.417-.127l.131-.044v2.6a5.464,5.464,0,0,1-2.008.331q-3.436,0-3.436-3.837V64.033h-1.887v-2.71h1a1.118,1.118,0,0,0,.867-.407,1.547,1.547,0,0,0,.358-1.059Z" transform="translate(-12.672 -13.01)"/><path id="é" class="cls-2" d="M218.2,67.639a2.55,2.55,0,0,0,.942,1.526,3,3,0,0,0,1.942.622,3.66,3.66,0,0,0,1.566-.336,3.049,3.049,0,0,0,1.015-.677l.314-.343,1.549,2.028-.2.2a6.128,6.128,0,0,1-.58.468,6.978,6.978,0,0,1-.943.591,6.073,6.073,0,0,1-1.3.456,6.732,6.732,0,0,1-1.643.2,5.759,5.759,0,0,1-4.108-9.814,5.422,5.422,0,0,1,4-1.692,5.2,5.2,0,0,1,3.881,1.582,5.411,5.411,0,0,1,1.551,3.95l-.107,1.236Zm.937-3.6A2.982,2.982,0,0,0,218.2,65.5h5a2.524,2.524,0,0,0-.83-1.455,2.354,2.354,0,0,0-1.61-.573,2.428,2.428,0,0,0-1.621.561m2.283-7.792h3.112l-2.44,3.384h-2.449Z" transform="translate(-12.672 -13.01)"/></g><g id="Gustave"><path id="G" class="cls-2" d="M139.617,87.5v5.864c-.057.074-.149.181-.276.325a8.412,8.412,0,0,1-.833.739,9.9,9.9,0,0,1-1.368.926,8.971,8.971,0,0,1-1.887.733,8.728,8.728,0,0,1-2.4.331,8.2,8.2,0,0,1-6-2.42,8.153,8.153,0,0,1,0-11.645,8.624,8.624,0,0,1,8.332-2.087,6.889,6.889,0,0,1,1.816.787,12.4,12.4,0,0,1,1.257.925,5.114,5.114,0,0,1,.786.783l.251.331-2.116,2.15c-.042-.06-.1-.141-.178-.248a4.947,4.947,0,0,0-.509-.547,5.3,5.3,0,0,0-.862-.677,5.567,5.567,0,0,0-1.226-.539,5.123,5.123,0,0,0-5.192,1.239,5.414,5.414,0,0,0,0,7.407,4.9,4.9,0,0,0,3.641,1.487,5.512,5.512,0,0,0,1.9-.314,3.757,3.757,0,0,0,1.205-.633l.336-.287V89.981h-2.777V87.5Z" transform="translate(-12.672 -13.01)"/><path id="u-2" data-name="u" class="cls-2" d="M149.7,94.951a4.571,4.571,0,0,1-.37.38,4.3,4.3,0,0,1-1.045.6,4.031,4.031,0,0,1-1.7.368,3.955,3.955,0,0,1-3.041-1.272,4.8,4.8,0,0,1-1.176-3.389V85.01h2.994v6.327a2.093,2.093,0,0,0,.6,1.532,2.044,2.044,0,0,0,1.512.606A2.072,2.072,0,0,0,149.1,92.8a2.793,2.793,0,0,0,.6-1.92V85.01h2.992V96.076H149.7Z" transform="translate(-12.672 -13.01)"/><path id="s-2" data-name="s" class="cls-2" d="M161.432,88.283a2.421,2.421,0,0,0-.212-.242,2.6,2.6,0,0,0-.613-.4,2.015,2.015,0,0,0-.953-.247,1.591,1.591,0,0,0-.976.269.775.775,0,0,0-.358.623.832.832,0,0,0,.509.716,6.365,6.365,0,0,0,1.242.513c.489.151.981.331,1.48.54a2.953,2.953,0,0,1,1.258,1.014,2.86,2.86,0,0,1,.509,1.736,3.17,3.17,0,0,1-1.153,2.492,4.683,4.683,0,0,1-3.173,1,6.345,6.345,0,0,1-1.646-.209,4.9,4.9,0,0,1-1.27-.508,8.4,8.4,0,0,1-.852-.59,3.844,3.844,0,0,1-.526-.491l-.151-.23,1.67-1.687a2.894,2.894,0,0,0,.277.336,3.708,3.708,0,0,0,.8.55,2.5,2.5,0,0,0,1.257.349,1.744,1.744,0,0,0,1.08-.283.86.86,0,0,0-.146-1.487,5.659,5.659,0,0,0-1.258-.529,13.518,13.518,0,0,1-1.48-.545,3.114,3.114,0,0,1-1.242-.993,2.732,2.732,0,0,1-.509-1.7,3.191,3.191,0,0,1,1.218-2.415,4.373,4.373,0,0,1,3-1.079,4.984,4.984,0,0,1,2.077.429,4.093,4.093,0,0,1,1.317.839l.38.429Z" transform="translate(-12.672 -13.01)"/><path id="t-2" data-name="t" class="cls-2" d="M166.62,81.747h2.667v3.5H171.5v2.711h-2.212v4.4a1.186,1.186,0,0,0,.374.883,1.309,1.309,0,0,0,.948.363,2.622,2.622,0,0,0,.571-.061,2.092,2.092,0,0,0,.417-.127l.131-.045v2.6a5.444,5.444,0,0,1-2.008.331q-3.436,0-3.436-3.835V87.953H164.4V85.242h1a1.116,1.116,0,0,0,.868-.408,1.545,1.545,0,0,0,.358-1.059Z" transform="translate(-12.672 -13.01)"/><path id="a" class="cls-2" d="M179.581,94.951a5.184,5.184,0,0,1-.363.381,4.373,4.373,0,0,1-1.013.6,4.083,4.083,0,0,1-4.273-.551,2.907,2.907,0,0,1-1.019-2.234,3.157,3.157,0,0,1,.857-2.259,4.181,4.181,0,0,1,2.364-1.179l3.447-.628a1.439,1.439,0,0,0-.5-1.135A2.018,2.018,0,0,0,177.7,87.5a3.177,3.177,0,0,0-1.346.28,2.5,2.5,0,0,0-.857.58l-.248.265-1.66-1.687c.045-.06.1-.139.18-.238a4.752,4.752,0,0,1,.509-.511,5.379,5.379,0,0,1,.863-.646,5.69,5.69,0,0,1,1.225-.518,5.206,5.206,0,0,1,1.551-.237,4.649,4.649,0,0,1,3.36,1.25,4.188,4.188,0,0,1,1.3,3.148v6.889h-2.994Zm-.6-1.791a2.6,2.6,0,0,0,.6-1.824V91l-2.439.451q-1.227.2-1.225,1.246,0,1.122,1.441,1.123a2.092,2.092,0,0,0,1.622-.655" transform="translate(-12.672 -13.01)"/><polygon id="v-2" data-name="v" class="cls-2" points="175.318 83.065 171.21 71.999 174.32 71.999 176.869 79.34 179.427 71.999 182.527 71.999 178.431 83.065 175.318 83.065"/><path id="e-2" data-name="e" class="cls-2" d="M198.945,91.557a2.544,2.544,0,0,0,.944,1.526,2.991,2.991,0,0,0,1.941.624,3.658,3.658,0,0,0,1.566-.338,3.019,3.019,0,0,0,1.015-.677l.313-.341,1.551,2.028-.2.2a5.532,5.532,0,0,1-.58.47,6.679,6.679,0,0,1-.944.589,5.906,5.906,0,0,1-1.294.458,6.737,6.737,0,0,1-1.643.2,5.759,5.759,0,0,1-4.109-9.814,5.429,5.429,0,0,1,4-1.692,5.21,5.21,0,0,1,3.881,1.582,5.41,5.41,0,0,1,1.551,3.952l-.108,1.234Zm.939-3.6a3,3,0,0,0-.939,1.466h5a2.541,2.541,0,0,0-.83-1.455,2.358,2.358,0,0,0-1.611-.573,2.421,2.421,0,0,0-1.62.562" transform="translate(-12.672 -13.01)"/></g><g id="Eiffel"><polygon id="E-3" data-name="E" class="cls-2" points="112.623 91.179 112.623 106.983 124.29 106.983 124.29 103.942 115.962 103.942 115.962 100.438 122.284 100.438 122.284 97.395 115.962 97.395 115.962 94.232 124.062 94.232 124.062 91.179 112.623 91.179"/><path id="i-3" data-name="i" class="cls-2" d="M142,107a1.792,1.792,0,0,1-1.3.464,1.6,1.6,0,0,1-1.208-.464,1.894,1.894,0,0,1,0-2.457,1.609,1.609,0,0,1,1.2-.463,1.792,1.792,0,0,1,1.3.463A1.823,1.823,0,0,1,142,107m.259,12.994h-3V108.927h3Z" transform="translate(-12.672 -13.01)"/><path id="f" class="cls-2" d="M151.11,111.981h-2.44V120h-3v-8.014h-1.551V109.27h1.551V107.8q0-3.832,3.446-3.835a5.651,5.651,0,0,1,.988.088,6,6,0,0,1,.77.177l.238.076V106.9A2.459,2.459,0,0,0,150,106.68a1.337,1.337,0,0,0-.954.358,1.159,1.159,0,0,0-.38.876v1.356h2.44Z" transform="translate(-12.672 -13.01)"/><path id="f-2" data-name="f" class="cls-2" d="M158.965,111.981h-2.44V120h-3v-8.014h-1.552V109.27h1.552V107.8q0-3.832,3.446-3.835a5.651,5.651,0,0,1,.988.088,5.974,5.974,0,0,1,.769.177l.239.076V106.9a2.461,2.461,0,0,0-1.107-.221,1.332,1.332,0,0,0-.952.358,1.164,1.164,0,0,0-.381.876v1.356h2.44Z" transform="translate(-12.672 -13.01)"/><path id="e-4" data-name="e" class="cls-2" d="M163.155,115.476A2.548,2.548,0,0,0,164.1,117a3,3,0,0,0,1.942.623,3.66,3.66,0,0,0,1.566-.336,3.034,3.034,0,0,0,1.015-.677l.314-.341,1.549,2.028-.2.2a5.738,5.738,0,0,1-.579.47,7.063,7.063,0,0,1-.945.589,5.936,5.936,0,0,1-1.295.458,6.825,6.825,0,0,1-1.643.2,5.76,5.76,0,0,1-4.108-9.816,5.426,5.426,0,0,1,4-1.692,5.213,5.213,0,0,1,3.881,1.582,5.412,5.412,0,0,1,1.551,3.952l-.109,1.234Zm.938-3.605a3,3,0,0,0-.938,1.467h5a2.538,2.538,0,0,0-.83-1.455,2.357,2.357,0,0,0-1.61-.573,2.428,2.428,0,0,0-1.621.561" transform="translate(-12.672 -13.01)"/><rect id="l" class="cls-2" x="160.561" y="91.179" width="3.004" height="15.804"/></g></g></g><path class="cls-1" d="M306.347,42.207V32.4h2.1v7.914H313v1.891Z" transform="translate(-12.672 -13.01)"/><path class="cls-1" d="M316.567,39.9l-.84,2.311h-2.241l3.852-9.8h2.241l3.853,9.805H321.19l-.84-2.311Zm1.892-5.043-1.191,3.221h2.381Z" transform="translate(-12.672 -13.01)"/><path class="cls-1" d="M333.469,32.4h1.863v9.805h-2.1V35.665l-3.151,4.02-3.151-3.992v6.514h-2.1V32.4h1.892l3.361,4.272Z" transform="translate(-12.672 -13.01)"/><path class="cls-1" d="M345.2,40.316v1.891h-7.353V32.4h7.213v1.891h-5.113v1.961h3.992v1.891h-3.992v2.171Z" transform="translate(-12.672 -13.01)"/><path class="cls-1" d="M346.6,35.063c0-1.541,1.331-2.872,3.432-2.872a4.2,4.2,0,0,1,3.222,1.331l-1.261,1.331a2.557,2.557,0,0,0-1.821-.841c-.841,0-1.331.491-1.331,1.051,0,1.821,4.833.77,4.833,4.272,0,1.751-1.331,3.082-3.712,3.082a4.878,4.878,0,0,1-3.712-1.611l1.261-1.261a3.131,3.131,0,0,0,2.311,1.051c1.05,0,1.611-.561,1.611-1.261C351.429,37.514,346.6,38.565,346.6,35.063Z" transform="translate(-12.672 -13.01)"/><path class="cls-1" d="M306.487,59.007V49.2h1.54v8.405h4.763v1.4Z" transform="translate(-12.672 -13.01)"/><path class="cls-1" d="M317.548,49.2h1.541l4.062,9.806H321.54l-1.05-2.592h-4.343l-1.05,2.592h-1.611Zm-.84,5.813h3.222l-1.612-4.062Z" transform="translate(-12.672 -13.01)"/><path class="cls-1" d="M324.826,59.007V49.2h3.992a2.794,2.794,0,0,1,2.872,2.592,2.4,2.4,0,0,1-.98,1.961,2.873,2.873,0,0,1,1.471,2.381,3,3,0,0,1-3.153,2.872Zm1.541-8.475v2.662h2.451a1.331,1.331,0,1,0,0-2.662Zm2.661,7.144a1.611,1.611,0,1,0,0-3.222h-2.661v3.222Z" transform="translate(-12.672 -13.01)"/><path class="cls-1" d="M339.039,49.061a5.045,5.045,0,1,1-5.184,5.043A5.055,5.055,0,0,1,339.039,49.061Zm0,8.685A3.642,3.642,0,1,0,335.4,54.1,3.618,3.618,0,0,0,339.039,57.746Z" transform="translate(-12.672 -13.01)"/><path class="cls-1" d="M346.456,49.2h4.133a3.024,3.024,0,0,1,3.151,3.012,3.1,3.1,0,0,1-1.961,2.872l2.241,3.922h-1.68l-2.1-3.783H348v3.783h-1.541Zm4.133,1.4H348v3.222h2.592a1.611,1.611,0,0,0,0-3.222Z" transform="translate(-12.672 -13.01)"/><path class="cls-1" d="M359.2,49.2h1.541l4.063,9.806h-1.612l-1.049-2.592H357.8l-1.051,2.592h-1.61Zm-.84,5.813h3.222l-1.611-4.062Z" transform="translate(-12.672 -13.01)"/><path class="cls-1" d="M371.939,49.2v1.4H369v8.405h-1.541V50.6h-2.941V49.2Z" transform="translate(-12.672 -13.01)"/><path class="cls-1" d="M377.679,49.061A5.045,5.045,0,1,1,372.5,54.1,5.054,5.054,0,0,1,377.679,49.061Zm0,8.685a3.642,3.642,0,1,0-3.643-3.642A3.617,3.617,0,0,0,377.679,57.746Z" transform="translate(-12.672 -13.01)"/><path class="cls-1" d="M385.1,49.2h1.54v9.806H385.1Z" transform="translate(-12.672 -13.01)"/><path class="cls-1" d="M389.435,49.2h4.132a3.023,3.023,0,0,1,3.152,3.012,3.1,3.1,0,0,1-1.961,2.872L397,59.007h-1.681l-2.1-3.783h-2.241v3.783h-1.541Zm4.132,1.4h-2.591v3.222h2.591a1.611,1.611,0,1,0,0-3.222Z" transform="translate(-12.672 -13.01)"/><path class="cls-1" d="M406.309,57.606v1.4h-7.074V49.2h6.934v1.4h-5.394v2.592h4.273v1.4h-4.273v3.012Z" transform="translate(-12.672 -13.01)"/><path class="cls-1" d="M309.429,66h1.541l4.061,9.805h-1.61l-1.051-2.591h-4.343l-1.05,2.591h-1.611Zm-.841,5.813h3.221l-1.61-4.062Z" transform="translate(-12.672 -13.01)"/><path class="cls-1" d="M322.73,71.885V66h1.541v5.883a4.133,4.133,0,0,1-8.264,0V66h1.541v5.883a2.592,2.592,0,1,0,5.182,0Z" transform="translate(-12.672 -13.01)"/><path class="cls-1" d="M326.366,68.523c0-1.471,1.191-2.661,3.222-2.661a3.835,3.835,0,0,1,2.941,1.26l-.98.981a2.5,2.5,0,0,0-1.961-.841c-1.051,0-1.681.631-1.681,1.261,0,2.241,5.183.841,5.183,4.483,0,1.68-1.261,2.941-3.5,2.941a4.416,4.416,0,0,1-3.5-1.541l.98-.98a3.088,3.088,0,0,0,2.522,1.12c1.261,0,1.961-.7,1.961-1.54C331.549,70.764,326.366,72.165,326.366,68.523Z" transform="translate(-12.672 -13.01)"/><path class="cls-1" d="M343.8,67.753l-.981.98a3.729,3.729,0,0,0-3.011-1.471,3.642,3.642,0,0,0,0,7.284,3.907,3.907,0,0,0,3.082-1.54l.98.98a5.226,5.226,0,0,1-4.062,1.961,5.043,5.043,0,1,1,3.992-8.194Z" transform="translate(-12.672 -13.01)"/><path class="cls-1" d="M352.41,71.885V66h1.541v5.883a4.133,4.133,0,0,1-8.265,0V66h1.541v5.883a2.592,2.592,0,1,0,5.183,0Z" transform="translate(-12.672 -13.01)"/><path class="cls-1" d="M356.606,75.807V66h1.54v8.4h4.763v1.4Z" transform="translate(-12.672 -13.01)"/><path class="cls-1" d="M370.189,66v1.4h-2.941v8.405h-1.541V67.4h-2.941V66Z" transform="translate(-12.672 -13.01)"/><path class="cls-1" d="M373.968,66h1.541l4.061,9.805h-1.61l-1.051-2.591h-4.343l-1.049,2.591h-1.612Zm-.841,5.813h3.222l-1.611-4.062Z" transform="translate(-12.672 -13.01)"/><path class="cls-1" d="M386.709,66v1.4h-2.941v8.405h-1.542V67.4h-2.941V66Z" transform="translate(-12.672 -13.01)"/><path class="cls-1" d="M388.386,66h1.541v9.805h-1.541Z" transform="translate(-12.672 -13.01)"/><path class="cls-1" d="M397.349,65.862a5.044,5.044,0,1,1-5.184,5.042A5.054,5.054,0,0,1,397.349,65.862Zm0,8.684a3.642,3.642,0,1,0-3.643-3.642A3.617,3.617,0,0,0,397.349,74.546Z" transform="translate(-12.672 -13.01)"/><path class="cls-1" d="M413.1,66v9.805h-1.331l-5.463-7.074v7.074h-1.54V66h1.33l5.463,7.073V66Z" transform="translate(-12.672 -13.01)"/><path class="cls-1" d="M417.156,74.826l-1.751,2.8-.911-.491,1.4-3.011Z" transform="translate(-12.672 -13.01)"/><path class="cls-1" d="M315.382,82.8h1.331v9.8h-1.541V85.463L311.6,89.945l-3.573-4.482v7.144h-1.54V82.8h1.33l3.783,4.762Z" transform="translate(-12.672 -13.01)"/><path class="cls-1" d="M324.13,82.661a5.045,5.045,0,1,1-5.184,5.043A5.054,5.054,0,0,1,324.13,82.661Zm0,8.684a3.642,3.642,0,1,0-3.643-3.641A3.616,3.616,0,0,0,324.13,91.345Z" transform="translate(-12.672 -13.01)"/><path class="cls-1" d="M334.978,82.8a4.9,4.9,0,1,1,0,9.8h-3.431V82.8Zm-1.89,1.4v7h1.89a3.5,3.5,0,0,0,0-7Z" transform="translate(-12.672 -13.01)"/><path class="cls-1" d="M349.261,91.206v1.4h-7.074V82.8h6.934v1.4h-5.394v2.592H348v1.4h-4.273v3.012ZM346.18,79.58h1.47l-1.47,1.961h-1.051Z" transform="translate(-12.672 -13.01)"/><path class="cls-1" d="M351.357,92.607V82.8h1.54v8.4h4.763v1.4Z" transform="translate(-12.672 -13.01)"/><path class="cls-1" d="M359.476,82.8h1.542v9.8h-1.542Z" transform="translate(-12.672 -13.01)"/><path class="cls-1" d="M363.256,85.323c0-1.471,1.191-2.662,3.221-2.662a3.838,3.838,0,0,1,2.943,1.261l-.981.981a2.5,2.5,0,0,0-1.962-.841c-1.049,0-1.68.631-1.68,1.261,0,2.241,5.182.84,5.182,4.482,0,1.681-1.26,2.942-3.5,2.942a4.415,4.415,0,0,1-3.5-1.541l.981-.981a3.082,3.082,0,0,0,2.52,1.12c1.261,0,1.962-.7,1.962-1.54C368.439,87.564,363.256,88.965,363.256,85.323Z" transform="translate(-12.672 -13.01)"/><path class="cls-1" d="M375.018,82.8h1.541l4.062,9.8H379.01l-1.05-2.592h-4.343l-1.051,2.592h-1.61Zm-.84,5.813H377.4l-1.611-4.062Z" transform="translate(-12.672 -13.01)"/><path class="cls-1" d="M387.76,82.8v1.4h-2.942v8.405h-1.541V84.2h-2.941V82.8Z" transform="translate(-12.672 -13.01)"/><path class="cls-1" d="M389.436,82.8h1.54v9.8h-1.54Z" transform="translate(-12.672 -13.01)"/><path class="cls-1" d="M398.4,82.661a5.045,5.045,0,1,1-5.182,5.043A5.055,5.055,0,0,1,398.4,82.661Zm0,8.684a3.642,3.642,0,1,0-3.641-3.641A3.616,3.616,0,0,0,398.4,91.345Z" transform="translate(-12.672 -13.01)"/><path class="cls-1" d="M414.15,82.8v9.8h-1.331l-5.463-7.074v7.074h-1.541V82.8h1.331l5.463,7.073V82.8Z" transform="translate(-12.672 -13.01)"/><path class="cls-1" d="M418.206,91.627l-1.751,2.8-.91-.491,1.4-3.011Z" transform="translate(-12.672 -13.01)"/><path class="cls-1" d="M313.56,108.006v1.4h-7.073V99.6h6.934V101h-5.394v2.591H312.3v1.4h-4.273v3.012Z" transform="translate(-12.672 -13.01)"/><path class="cls-1" d="M321.54,99.6h1.821L320,104.3l3.643,5.112H321.82l-2.731-3.853-2.732,3.853h-1.821l3.643-5.112L314.816,99.6h1.822l2.451,3.432Z" transform="translate(-12.672 -13.01)"/><path class="cls-1" d="M329.238,99.6a3.155,3.155,0,1,1,0,6.3h-2.381v3.5h-1.541V99.6Zm-2.381,1.4v3.5h2.381a1.751,1.751,0,1,0,0-3.5Z" transform="translate(-12.672 -13.01)"/><path class="cls-1" d="M341.84,108.006v1.4h-7.073V99.6H341.7V101h-5.393v2.591h4.272v1.4h-4.272v3.012Zm-3.081-11.625h1.47l-1.47,1.961h-1.051Z" transform="translate(-12.672 -13.01)"/><path class="cls-1" d="M343.936,99.6h4.132a3.023,3.023,0,0,1,3.152,3.012,3.1,3.1,0,0,1-1.961,2.872l2.241,3.922h-1.681l-2.1-3.782h-2.242v3.782h-1.54Zm4.132,1.4h-2.592v3.221h2.592a1.611,1.611,0,1,0,0-3.221Z" transform="translate(-12.672 -13.01)"/><path class="cls-1" d="M353.736,99.6h1.54v9.806h-1.54Z" transform="translate(-12.672 -13.01)"/><path class="cls-1" d="M366.971,99.6H368.3v9.806h-1.541v-7.144l-3.573,4.483-3.572-4.483v7.144h-1.54V99.6h1.33l3.782,4.763Z" transform="translate(-12.672 -13.01)"/><path class="cls-1" d="M378.17,108.006v1.4H371.1V99.6h6.933V101h-5.392v2.591h4.272v1.4h-4.272v3.012Z" transform="translate(-12.672 -13.01)"/><path class="cls-1" d="M388.6,99.6v9.806h-1.332l-5.462-7.073v7.073h-1.541V99.6H381.6l5.462,7.075V99.6Z" transform="translate(-12.672 -13.01)"/><path class="cls-1" d="M397.7,99.6V101h-2.941v8.4h-1.541V101h-2.942V99.6Z" transform="translate(-12.672 -13.01)"/><path class="cls-1" d="M401.477,99.6h1.541l4.062,9.806h-1.61l-1.051-2.591h-4.343l-1.05,2.591h-1.611Zm-.84,5.814h3.221l-1.61-4.062Z" transform="translate(-12.672 -13.01)"/><path class="cls-1" d="M414.219,99.6V101h-2.942v8.4h-1.541V101H406.8V99.6Z" transform="translate(-12.672 -13.01)"/><path class="cls-1" d="M415.9,99.6h1.541v9.806H415.9Z" transform="translate(-12.672 -13.01)"/><path class="cls-1" d="M424.858,99.462a5.044,5.044,0,1,1-5.183,5.042A5.054,5.054,0,0,1,424.858,99.462Zm0,8.684a3.642,3.642,0,1,0-3.642-3.642A3.617,3.617,0,0,0,424.858,108.146Z" transform="translate(-12.672 -13.01)"/><path class="cls-1" d="M440.61,99.6v9.806h-1.331l-5.463-7.073v7.073h-1.541V99.6h1.331l5.463,7.075V99.6Z" transform="translate(-12.672 -13.01)"/><path class="cls-1" d="M309.919,116.4a4.9,4.9,0,1,1,0,9.8h-3.432v-9.8Zm-1.892,1.4v7h1.892a3.5,3.5,0,0,0,0-7Z" transform="translate(-12.672 -13.01)"/><path class="cls-1" d="M324.2,124.806v1.4h-7.074v-9.8h6.933v1.4h-5.392v2.591h4.272v1.4h-4.272v3.011Z" transform="translate(-12.672 -13.01)"/><path class="cls-1" d="M325.736,118.923c0-1.471,1.192-2.661,3.222-2.661a3.836,3.836,0,0,1,2.942,1.26l-.98.981a2.5,2.5,0,0,0-1.962-.841c-1.05,0-1.681.631-1.681,1.261,0,2.241,5.183.84,5.183,4.482,0,1.681-1.261,2.942-3.5,2.942a4.412,4.412,0,0,1-3.5-1.541l.98-.98a3.085,3.085,0,0,0,2.521,1.12c1.261,0,1.962-.7,1.962-1.541C330.92,121.164,325.736,122.564,325.736,118.923Z" transform="translate(-12.672 -13.01)"/><path class="cls-1" d="M337.356,116.4H338.9v9.8h-1.541Z" transform="translate(-12.672 -13.01)"/><path class="cls-1" d="M350.031,116.4v9.8H348.7l-5.463-7.074v7.074H341.7v-9.8h1.331l5.463,7.073V116.4Z" transform="translate(-12.672 -13.01)"/><path class="cls-1" d="M359.69,116.4v1.4h-5.323v2.731h4.2v1.4h-4.2v4.273h-1.541v-9.8Z" transform="translate(-12.672 -13.01)"/><path class="cls-1" d="M361.646,116.4h4.132a3.023,3.023,0,0,1,3.152,3.012,3.1,3.1,0,0,1-1.961,2.871l2.241,3.922h-1.681l-2.1-3.782h-2.242v3.782h-1.54Zm4.132,1.4h-2.592v3.221h2.592a1.611,1.611,0,1,0,0-3.221Z" transform="translate(-12.672 -13.01)"/><path class="cls-1" d="M374.388,116.4h1.541l4.061,9.8h-1.61l-1.051-2.592h-4.343l-1.05,2.592h-1.611Zm-.841,5.813h3.221l-1.61-4.063Z" transform="translate(-12.672 -13.01)"/><path class="cls-1" d="M381.105,118.923c0-1.471,1.191-2.661,3.222-2.661a3.835,3.835,0,0,1,2.941,1.26l-.98.981a2.5,2.5,0,0,0-1.961-.841c-1.051,0-1.681.631-1.681,1.261,0,2.241,5.183.84,5.183,4.482,0,1.681-1.261,2.942-3.5,2.942a4.416,4.416,0,0,1-3.5-1.541l.981-.98a3.085,3.085,0,0,0,2.521,1.12c1.261,0,1.961-.7,1.961-1.541C386.288,121.164,381.105,122.564,381.105,118.923Z" transform="translate(-12.672 -13.01)"/><path class="cls-1" d="M395.949,116.4v1.4h-2.941v8.4h-1.541v-8.4h-2.942v-1.4Z" transform="translate(-12.672 -13.01)"/><path class="cls-1" d="M397.626,116.4h4.132a3.023,3.023,0,0,1,3.151,3.012,3.1,3.1,0,0,1-1.961,2.871l2.241,3.922h-1.68l-2.1-3.782h-2.241v3.782h-1.54Zm4.132,1.4h-2.592v3.221h2.592a1.611,1.611,0,1,0,0-3.221Z" transform="translate(-12.672 -13.01)"/><path class="cls-1" d="M414.009,122.285V116.4h1.541v5.883a4.133,4.133,0,0,1-8.265,0V116.4h1.541v5.883a2.592,2.592,0,1,0,5.183,0Z" transform="translate(-12.672 -13.01)"/><path class="cls-1" d="M426.82,118.152l-.981.981a3.731,3.731,0,0,0-3.011-1.471,3.642,3.642,0,1,0,0,7.284,3.906,3.906,0,0,0,3.081-1.541l.981.982a5.227,5.227,0,0,1-4.062,1.96,5.043,5.043,0,1,1,3.992-8.195Z" transform="translate(-12.672 -13.01)"/><path class="cls-1" d="M435.148,116.4v1.4h-2.941v8.4h-1.541v-8.4h-2.941v-1.4Z" transform="translate(-12.672 -13.01)"/><path class="cls-1" d="M443.409,122.285V116.4h1.541v5.883a4.133,4.133,0,0,1-8.265,0V116.4h1.541v5.883a2.592,2.592,0,1,0,5.183,0Z" transform="translate(-12.672 -13.01)"/><path class="cls-1" d="M447.605,116.4h4.132a3.023,3.023,0,0,1,3.152,3.012,3.1,3.1,0,0,1-1.961,2.871l2.241,3.922h-1.681l-2.1-3.782h-2.242v3.782h-1.54Zm4.132,1.4h-2.592v3.221h2.592a1.611,1.611,0,1,0,0-3.221Z" transform="translate(-12.672 -13.01)"/><path class="cls-1" d="M464.478,124.806v1.4h-7.073v-9.8h6.934v1.4h-5.394v2.591h4.273v1.4h-4.273v3.011Z" transform="translate(-12.672 -13.01)"/><path class="cls-1" d="M466.015,118.923c0-1.471,1.19-2.661,3.221-2.661a3.838,3.838,0,0,1,2.942,1.26l-.981.981a2.5,2.5,0,0,0-1.961-.841c-1.051,0-1.68.631-1.68,1.261,0,2.241,5.182.84,5.182,4.482,0,1.681-1.261,2.942-3.5,2.942a4.416,4.416,0,0,1-3.5-1.541l.981-.98a3.085,3.085,0,0,0,2.521,1.12c1.261,0,1.961-.7,1.961-1.541C471.2,121.164,466.015,122.564,466.015,118.923Z" transform="translate(-12.672 -13.01)"/><path class="cls-1" d="M309.919,133.2a4.9,4.9,0,1,1,0,9.806h-3.432V133.2Zm-1.892,1.4v7h1.892a3.5,3.5,0,0,0,0-7Z" transform="translate(-12.672 -13.01)"/><path class="cls-1" d="M324.2,141.6v1.4h-7.074V133.2h6.933v1.4h-5.392v2.591h4.272v1.4h-4.272V141.6Z" transform="translate(-12.672 -13.01)"/><path class="cls-1" d="M335.4,133.2v1.4h-2.941v8.405h-1.541V134.6h-2.942v-1.4Z" transform="translate(-12.672 -13.01)"/><path class="cls-1" d="M337.077,133.2h4.132a3.023,3.023,0,0,1,3.151,3.012,3.1,3.1,0,0,1-1.961,2.872l2.242,3.922H342.96l-2.1-3.783h-2.241v3.783h-1.54Zm4.132,1.4h-2.592v3.222h2.592a1.611,1.611,0,1,0,0-3.222Z" transform="translate(-12.672 -13.01)"/><path class="cls-1" d="M349.818,133.2h1.541l4.062,9.806H353.81l-1.05-2.591h-4.343l-1.05,2.591h-1.611Zm-.841,5.813H352.2l-1.61-4.061Z" transform="translate(-12.672 -13.01)"/><path class="cls-1" d="M365.431,133.2v9.806H364.1l-5.464-7.074v7.074H357.1V133.2h1.33l5.463,7.074V133.2Z" transform="translate(-12.672 -13.01)"/><path class="cls-1" d="M367.666,135.722c0-1.47,1.19-2.661,3.222-2.661a3.834,3.834,0,0,1,2.941,1.261l-.98.981a2.5,2.5,0,0,0-1.961-.84c-1.051,0-1.681.63-1.681,1.259,0,2.242,5.183.841,5.183,4.483,0,1.682-1.261,2.941-3.5,2.941a4.416,4.416,0,0,1-3.5-1.541l.98-.98a3.087,3.087,0,0,0,2.522,1.121c1.26,0,1.961-.7,1.961-1.541C372.849,137.964,367.666,139.365,367.666,135.722Z" transform="translate(-12.672 -13.01)"/><path class="cls-1" d="M380.408,133.2a3.155,3.155,0,1,1,0,6.3h-2.382v3.5h-1.54V133.2Zm-2.382,1.4v3.5h2.382a1.751,1.751,0,1,0,0-3.5Z" transform="translate(-12.672 -13.01)"/><path class="cls-1" d="M390.559,133.061a5.044,5.044,0,1,1-5.184,5.042A5.054,5.054,0,0,1,390.559,133.061Zm0,8.685a3.642,3.642,0,1,0-3.643-3.643A3.617,3.617,0,0,0,390.559,141.746Z" transform="translate(-12.672 -13.01)"/><path class="cls-1" d="M397.976,133.2h4.132a3.024,3.024,0,0,1,3.152,3.012,3.1,3.1,0,0,1-1.961,2.872l2.241,3.922h-1.681l-2.1-3.783h-2.241v3.783h-1.541Zm4.132,1.4h-2.591v3.222h2.591a1.611,1.611,0,0,0,0-3.222Z" transform="translate(-12.672 -13.01)"/><path class="cls-1" d="M413.8,133.2v1.4h-2.942v8.405h-1.541V134.6h-2.941v-1.4Z" transform="translate(-12.672 -13.01)"/></g></svg>